<svg fill="none" xmlns="http://www.w3.org/2000/svg" width="35" height="35">
  <path d="M30.4849 17.7955A12.6893 12.6893 0 0 0 14.112 5.6525a12.6893 12.6893 0 0 0 6.9688 24.3994" stroke="currentColor" stroke-width="1.3596" stroke-linecap="round"/>
  <path d="M17.7954 23.4351c3.1147 0 5.6397-2.525 5.6397-5.6397 0-3.1147-2.525-5.6396-5.6397-5.6396-3.1147 0-5.6396 2.5249-5.6396 5.6396 0 3.1147 2.5249 5.6397 5.6396 5.6397Z" stroke="currentColor" stroke-width="1.3596"/>
  <path d="M23.4351 13.5657v6.3447a3.525 3.525 0 0 0 3.5248 3.5248 3.525 3.525 0 0 0 3.5247-3.5248v-2.1149" stroke="currentColor" stroke-width="1.3596" stroke-linecap="round"/>
</svg>
