<svg fill="none" xmlns="http://www.w3.org/2000/svg" width="35" height="35">
  <path d="M17.7955 3.6964A14.0993 14.0993 0 0 0 3.6963 17.7955c0 6.2319 4.0465 11.5191 9.6438 13.3943.705.1127.9306-.3243.9306-.705V28.102c-3.9055.846-4.7374-1.8893-4.7374-1.8893-.6485-1.6355-1.565-2.0725-1.565-2.0725-1.283-.8742.0987-.846.0987-.846 1.41.0987 2.1572 1.4522 2.1572 1.4522 1.2266 2.1431 3.2992 1.5086 4.1029 1.1703.1269-.9165.4934-1.5368.8882-1.8893-3.13-.3525-6.4151-1.565-6.4151-6.9368 0-1.565.5358-2.8198 1.4522-3.8209-.141-.3525-.6345-1.8188.141-3.7222 0 0 1.1843-.3806 3.8773 1.4381 1.1138-.3101 2.3263-.4652 3.5248-.4652 1.1984 0 2.4109.1551 3.5247.4652 2.693-1.8187 3.8773-1.438 3.8773-1.438.7755 1.9033.282 3.3696.141 3.7221.9165 1.0011 1.4522 2.2559 1.4522 3.8209 0 5.3859-3.2992 6.5702-6.4433 6.9227.5076.4371.9728 1.2971.9728 2.6083v3.8632c0 .3807.2256.8318.9447.705 5.5974-1.8893 9.6297-7.1624 9.6297-13.3943a14.1001 14.1001 0 0 0-4.1295-9.9696 14.0998 14.0998 0 0 0-9.9696-4.1295Z" fill="#currentColor"/>
</svg>
