<svg fill="none" xmlns="http://www.w3.org/2000/svg" width="35" height="35">
  <path d="M27.6646 5.1062a2.8196 2.8196 0 0 1 2.8199 2.8198V27.665a2.8196 2.8196 0 0 1-2.8199 2.8198H7.9258a2.8199 2.8199 0 0 1-2.8198-2.8198V7.926a2.8198 2.8198 0 0 1 2.8198-2.8198h19.7388Zm-.7049 21.8537v-7.4726a4.5964 4.5964 0 0 0-4.5964-4.5963c-1.1984 0-2.5942.7332-3.271 1.8329v-1.565h-3.9336v11.801h3.9336V20.009c0-1.0856.8742-1.9739 1.9598-1.9739a1.974 1.974 0 0 1 1.9739 1.9739v6.9509h3.9337ZM10.5764 12.9453a2.3686 2.3686 0 0 0 2.3687-2.3686c0-1.3113-1.0574-2.3828-2.3687-2.3828a2.3827 2.3827 0 0 0-2.3827 2.3828c0 1.3112 1.0715 2.3686 2.3827 2.3686Zm1.9598 14.0146v-11.801H8.6308v11.801h3.9054Z" fill="currentColor"/>
</svg>
