<svg width="443" height="254" viewBox="0 0 443 254" fill="none" xmlns="http://www.w3.org/2000/svg">
<path d="M208.869 108.349L188.837 120.219C185.092 113.719 181.524 109.479 178.133 107.501C174.6 105.24 170.042 104.109 164.46 104.109C157.606 104.109 151.918 106.052 147.396 109.938C142.874 113.754 140.613 118.559 140.613 124.353C140.613 132.337 146.548 138.767 158.419 143.642L174.741 150.32C188.025 155.69 197.74 162.261 203.887 170.033C210.035 177.735 213.108 187.203 213.108 198.438C213.108 213.488 208.092 225.924 198.058 235.745C187.954 245.637 175.412 250.583 160.433 250.583C146.23 250.583 134.501 246.379 125.245 237.971C116.13 229.563 110.442 217.727 108.181 202.465L133.194 196.954C134.325 206.563 136.303 213.205 139.129 216.88C144.217 223.945 151.636 227.478 161.387 227.478C169.088 227.478 175.483 224.899 180.57 219.741C185.658 214.583 188.201 208.047 188.201 200.134C188.201 196.954 187.742 194.057 186.824 191.443C185.976 188.758 184.598 186.32 182.69 184.13C180.853 181.868 178.451 179.784 175.483 177.876C172.515 175.898 168.982 174.025 164.884 172.259L149.092 165.688C126.693 156.22 115.494 142.371 115.494 124.141C115.494 111.846 120.193 101.566 129.59 93.2985C138.988 84.9609 150.682 80.792 164.672 80.792C183.538 80.792 198.27 89.9776 208.869 108.349Z" fill="white"/>
<path fill-rule="evenodd" clip-rule="evenodd" d="M212.559 109.316L187.857 123.954L186.486 121.574C182.798 115.172 179.522 111.453 176.766 109.844L176.717 109.816L176.67 109.786C173.696 107.883 169.691 106.822 164.46 106.822C158.152 106.822 153.122 108.596 149.165 111.996L149.146 112.012C145.22 115.325 143.326 119.378 143.326 124.353C143.326 130.643 147.904 136.39 159.449 141.132C159.449 141.132 159.449 141.132 159.449 141.132L175.758 147.804C175.76 147.805 175.761 147.805 175.763 147.806C189.296 153.278 199.472 160.079 206.013 168.346C212.594 176.594 215.822 186.681 215.822 198.438C215.822 214.159 210.551 227.313 199.956 237.684C189.313 248.104 176.075 253.297 160.433 253.297C145.654 253.297 133.244 248.903 123.421 239.979L123.405 239.965C113.733 231.042 107.826 218.585 105.497 202.863L105.126 200.36L135.538 193.659L135.889 196.637C137.012 206.184 138.935 212.177 141.28 215.225L141.306 215.259L141.331 215.294C145.842 221.559 152.387 224.765 161.387 224.765C168.413 224.765 174.096 222.442 178.639 217.836C183.177 213.235 185.488 207.407 185.488 200.134C185.488 197.216 185.067 194.628 184.264 192.342L184.249 192.301L184.236 192.26C183.504 189.941 182.315 187.83 180.644 185.912L180.614 185.877L180.584 185.84C178.962 183.844 176.791 181.943 174.016 180.159L173.978 180.134C171.179 178.268 167.803 176.472 163.826 174.757L148.036 168.187C136.569 163.34 127.748 157.281 121.784 149.906C115.784 142.486 112.781 133.861 112.781 124.141C112.781 111.052 117.826 100.036 127.794 91.2651C137.745 82.4386 150.101 78.0788 164.672 78.0788C184.645 78.0788 200.208 87.9075 211.219 106.993L212.559 109.316ZM164.884 172.259C168.982 174.025 172.515 175.898 175.483 177.876C178.451 179.784 180.853 181.868 182.69 184.13C184.598 186.32 185.976 188.758 186.824 191.443C187.742 194.057 188.201 196.954 188.201 200.134C188.201 208.047 185.658 214.583 180.57 219.741C175.483 224.899 169.088 227.478 161.387 227.478C151.636 227.478 144.217 223.945 139.129 216.88C136.576 213.56 134.715 207.819 133.545 199.655C133.42 198.782 133.303 197.882 133.194 196.954L108.181 202.465C110.442 217.727 116.13 229.563 125.245 237.971C134.501 246.379 146.231 250.583 160.433 250.583C175.412 250.583 187.954 245.637 198.058 235.745C208.092 225.924 213.108 213.488 213.108 198.438C213.108 187.203 210.035 177.735 203.888 170.033C197.74 162.261 188.025 155.69 174.741 150.32L158.419 143.642C146.548 138.767 140.613 132.337 140.613 124.353C140.613 118.559 142.874 113.754 147.396 109.938C151.918 106.052 157.606 104.109 164.46 104.109C170.042 104.109 174.6 105.24 178.133 107.501C181.211 109.297 184.436 112.956 187.806 118.478C188.148 119.039 188.492 119.62 188.837 120.219L208.869 108.349C208.55 107.796 208.228 107.252 207.902 106.717C207.76 106.483 207.617 106.252 207.474 106.022C196.991 89.2019 182.724 80.792 164.672 80.792C150.682 80.792 138.988 84.9609 129.591 93.2985C120.193 101.566 115.494 111.846 115.494 124.141C115.494 142.371 126.694 156.22 149.092 165.688L164.884 172.259Z" fill="white"/>
<path d="M77.1267 83.9716V189.853C77.1267 202.501 76.2435 211.933 74.477 218.151C72.7106 225.217 69.7076 231.188 65.4681 236.063C57.2011 245.743 46.2491 250.583 32.6121 250.583C22.296 250.583 12.6512 247.898 3.67761 242.528L15.7601 221.437C21.7661 225.465 27.3834 227.478 32.6121 227.478C39.9606 227.478 45.0479 224.687 47.8743 219.105C50.8419 213.523 52.3257 203.772 52.3257 189.853V83.9716H77.1267Z" fill="white"/>
<path fill-rule="evenodd" clip-rule="evenodd" d="M79.84 81.2584V189.853C79.84 202.533 78.9634 212.26 77.0989 218.851C75.2416 226.256 72.0649 232.609 67.5235 237.834C58.7016 248.159 46.9744 253.297 32.6121 253.297C21.7983 253.297 11.6729 250.475 2.28433 244.857L0 243.49L14.8531 217.562L17.2713 219.183C22.996 223.022 28.0914 224.765 32.6121 224.765C35.9492 224.765 38.583 224.131 40.6339 223.006C42.66 221.895 44.2672 220.223 45.4536 217.88L45.478 217.831C48.1046 212.891 49.6124 203.741 49.6124 189.853V81.2584H79.84ZM65.4681 236.063C69.7076 231.188 72.7106 225.217 74.477 218.151C76.2435 211.933 77.1267 202.501 77.1267 189.853V83.9716H52.3257V189.853C52.3257 203.772 50.8419 213.523 47.8743 219.105C45.0479 224.687 39.9605 227.478 32.6121 227.478C28.055 227.478 23.2027 225.949 18.0552 222.889C17.2966 222.438 16.5316 221.954 15.7601 221.437L3.6776 242.528C4.34816 242.93 5.02246 243.316 5.70052 243.687C5.8123 243.749 5.92419 243.809 6.03618 243.87C14.3353 248.346 23.194 250.583 32.6121 250.583C46.2491 250.583 57.2011 245.743 65.4681 236.063Z" fill="white"/>
<path d="M404.697 150.989H393.475C393.15 150.989 392.987 150.827 392.987 150.501L393.182 81.8504C393.182 81.5902 393.312 81.4601 393.572 81.4601H425.58C425.906 81.4601 426.068 81.5902 426.068 81.8504V93.1214C426.068 93.3817 425.938 93.5118 425.678 93.5118H405.185V109.028H425.678C425.938 109.028 426.068 109.19 426.068 109.516L426.166 120.836C426.166 121.096 426.003 121.226 425.678 121.226H405.185V150.501C405.185 150.827 405.022 150.989 404.697 150.989Z" fill="white"/>
<path d="M357.515 150.989H347.512C346.992 150.989 346.732 150.762 346.732 150.306L346.634 82.2407C346.634 81.7203 346.894 81.4601 347.415 81.4601H356.441L373.324 120.836L372.836 82.2407C372.836 81.7203 373.128 81.4601 373.714 81.4601H383.619C384.009 81.4601 384.204 81.7203 384.204 82.2407L384.302 150.404C384.302 150.794 384.139 150.989 383.814 150.989H375.031L357.71 114.2L358.442 150.209C358.442 150.729 358.133 150.989 357.515 150.989Z" fill="white"/>
<path d="M319.457 151.965C315.911 151.965 312.642 151.054 309.65 149.233C306.689 147.411 304.299 144.988 302.477 141.963C300.688 138.905 299.793 135.555 299.793 131.911L299.891 100.245C299.891 96.5369 300.786 93.2028 302.575 90.2427C304.331 87.2501 306.706 84.8593 309.698 83.0702C312.691 81.2486 315.944 80.3378 319.457 80.3378C323.1 80.3378 326.369 81.2324 329.264 83.0214C332.192 84.8105 334.534 87.2176 336.29 90.2427C338.079 93.2353 338.974 96.5694 338.974 100.245L339.071 131.911C339.071 135.555 338.193 138.889 336.437 141.914C334.647 144.971 332.273 147.411 329.313 149.233C326.353 151.054 323.067 151.965 319.457 151.965ZM319.457 139.913C321.474 139.913 323.23 139.1 324.726 137.474C326.223 135.815 326.971 133.961 326.971 131.911L326.873 100.245C326.873 98.0332 326.174 96.1628 324.775 94.634C323.376 93.1052 321.604 92.3408 319.457 92.3408C317.408 92.3408 315.651 93.0889 314.187 94.5852C312.723 96.0815 311.992 97.9682 311.992 100.245V131.911C311.992 134.091 312.723 135.977 314.187 137.571C315.651 139.133 317.408 139.913 319.457 139.913Z" fill="white"/>
<path d="M274.08 151.965C270.469 151.965 267.168 151.054 264.175 149.233C261.215 147.411 258.857 144.971 257.1 141.914C255.376 138.824 254.514 135.392 254.514 131.619L254.612 100.44C254.612 96.7321 255.457 93.3817 257.149 90.3891C258.84 87.3639 261.166 84.9406 264.126 83.119C267.119 81.2649 270.437 80.3378 274.08 80.3378C277.788 80.3378 281.09 81.2324 283.985 83.0214C286.912 84.8105 289.238 87.2338 290.962 90.2915C292.719 93.3166 293.597 96.6996 293.597 100.44V105.027C293.597 105.287 293.467 105.417 293.207 105.417H281.984C281.724 105.417 281.594 105.287 281.594 105.027V100.44C281.594 98.2284 280.878 96.3255 279.447 94.7316C278.016 93.1377 276.227 92.3408 274.08 92.3408C271.705 92.3408 269.884 93.154 268.615 94.7804C267.347 96.4068 266.712 98.2934 266.712 100.44V131.619C266.712 134.058 267.428 136.059 268.859 137.62C270.29 139.149 272.031 139.913 274.08 139.913C276.227 139.913 278.016 139.068 279.447 137.376C280.878 135.652 281.594 133.733 281.594 131.619V126.983C281.594 126.723 281.724 126.593 281.984 126.593H293.304C293.564 126.593 293.694 126.723 293.694 126.983V131.619C293.694 135.359 292.816 138.775 291.06 141.865C289.271 144.923 286.912 147.379 283.985 149.233C281.057 151.054 277.756 151.965 274.08 151.965Z" fill="white"/>
<path d="M441.779 239.987H409.479C409.218 239.987 409.088 239.824 409.088 239.499L409.186 170.848C409.186 170.587 409.316 170.457 409.576 170.457H441.682C441.942 170.457 442.072 170.62 442.072 170.945V182.119C442.072 182.379 441.942 182.509 441.682 182.509H421.189V198.123H441.682C441.942 198.123 442.072 198.253 442.072 198.513L442.17 209.833C442.17 210.093 442.039 210.223 441.779 210.223H421.189V227.691H441.779C442.039 227.691 442.17 227.853 442.17 228.179V239.596C442.17 239.856 442.039 239.987 441.779 239.987Z" fill="white"/>
<path d="M402.062 239.987H369.762C369.501 239.987 369.371 239.824 369.371 239.499L369.469 170.945C369.469 170.62 369.632 170.457 369.957 170.457H381.082C381.407 170.457 381.569 170.62 381.569 170.945L381.472 227.691H402.062C402.388 227.691 402.55 227.853 402.55 228.179V239.499C402.55 239.824 402.388 239.987 402.062 239.987Z" fill="white"/>
<path d="M360.198 239.987H348.879C348.553 239.987 348.391 239.824 348.391 239.499L348.488 170.848C348.488 170.587 348.618 170.457 348.879 170.457H360.101C360.361 170.457 360.491 170.587 360.491 170.848L360.589 239.499C360.589 239.824 360.459 239.987 360.198 239.987Z" fill="white"/>
<path d="M312.675 239.987H301.355C301.095 239.987 300.964 239.824 300.964 239.499L301.062 170.848C301.062 170.587 301.225 170.457 301.55 170.457H312.675C313 170.457 313.163 170.587 313.163 170.848L313.065 198.025H328.044V170.848C328.044 170.587 328.174 170.457 328.435 170.457H339.559C339.885 170.457 340.047 170.587 340.047 170.848L340.242 239.499C340.242 239.824 340.08 239.987 339.754 239.987H328.532C328.207 239.987 328.044 239.824 328.044 239.499V210.126H313.065V239.499C313.065 239.824 312.935 239.987 312.675 239.987Z" fill="white"/>
<path d="M274.08 240.962C270.469 240.962 267.168 240.052 264.175 238.23C261.215 236.408 258.857 233.969 257.1 230.911C255.376 227.821 254.514 224.389 254.514 220.616L254.612 189.438C254.612 185.729 255.457 182.379 257.149 179.386C258.84 176.361 261.166 173.938 264.126 172.116C267.119 170.262 270.437 169.335 274.08 169.335C277.788 169.335 281.09 170.23 283.985 172.019C286.912 173.808 289.238 176.231 290.962 179.289C292.719 182.314 293.597 185.697 293.597 189.438V194.024C293.597 194.284 293.467 194.414 293.207 194.414H281.984C281.724 194.414 281.594 194.284 281.594 194.024V189.438C281.594 187.226 280.878 185.323 279.447 183.729C278.016 182.135 276.227 181.338 274.08 181.338C271.705 181.338 269.884 182.151 268.615 183.778C267.347 185.404 266.712 187.291 266.712 189.438V220.616C266.712 223.056 267.428 225.056 268.859 226.617C270.29 228.146 272.031 228.911 274.08 228.911C276.227 228.911 278.016 228.065 279.447 226.373C280.878 224.649 281.594 222.73 281.594 220.616V215.981C281.594 215.72 281.724 215.59 281.984 215.59H293.304C293.564 215.59 293.694 215.72 293.694 215.981V220.616C293.694 224.357 292.816 227.772 291.06 230.862C289.271 233.92 286.912 236.376 283.985 238.23C281.057 240.052 277.756 240.962 274.08 240.962Z" fill="white"/>
<path d="M173.899 57.7858C171.039 57.7858 168.414 57.0641 166.026 55.6208C163.612 54.1775 161.67 52.2618 160.2 49.8737C158.757 47.4856 158.035 44.8876 158.035 42.0797V39.6785C158.035 39.4423 158.167 39.3242 158.429 39.3242H167.561C167.771 39.3242 167.876 39.4423 167.876 39.6785V41.5286C167.876 43.3393 168.467 44.8745 169.648 46.1342C170.829 47.3675 172.246 47.9842 173.899 47.9842C175.578 47.9842 176.996 47.3544 178.15 46.0948C179.305 44.8089 179.882 43.2868 179.882 41.5286V36.0571C179.882 34.3776 179.279 32.9736 178.071 31.8452C176.864 30.7167 175.369 30.1525 173.584 30.1525C171.275 30.1525 169.372 31.071 167.876 32.908L167.719 33.1442L159.098 32.475C158.81 32.475 158.665 32.3438 158.665 32.0813L159.649 9.99836L160.122 1.22027C160.122 1.01034 160.227 0.905365 160.437 0.905365H187.558C187.768 0.905365 187.873 1.01034 187.873 1.22027V9.99836C187.873 10.2608 187.768 10.392 187.558 10.392H168.664L168.27 21.5319C168.926 21.217 169.779 20.9546 170.829 20.7446C171.878 20.5084 172.823 20.3904 173.663 20.3904C176.576 20.3904 179.252 21.0989 181.693 22.516C184.133 23.9593 186.075 25.8619 187.519 28.2237C188.988 30.5855 189.723 33.1966 189.723 36.0571V41.5286C189.723 44.4415 189.015 47.1445 187.597 49.6375C186.154 52.1043 184.238 54.0856 181.85 55.5814C179.462 57.051 176.812 57.7858 173.899 57.7858Z" fill="url(#paint0_linear_2_85)"/>
<path d="M152.958 56.9985H122.884C122.621 56.9985 122.49 56.8673 122.49 56.6049V47.4725C122.49 47.3675 122.543 47.2626 122.648 47.1576L142.566 19.8393C142.933 19.3407 143.235 18.7108 143.471 17.9498C143.733 17.1625 143.865 16.4802 143.865 15.9029C143.865 14.3284 143.3 12.885 142.172 11.5729C141.043 10.2608 139.613 9.60472 137.881 9.60472C136.228 9.60472 134.824 10.2345 133.669 11.4942C132.515 12.7538 131.937 14.3546 131.937 16.2965V20.2329C131.937 20.4953 131.806 20.6265 131.544 20.6265H122.49C122.28 20.6265 122.175 20.4953 122.175 20.2329V16.2965C122.175 13.2787 122.923 10.5363 124.419 8.06954C125.888 5.60275 127.817 3.64769 130.205 2.20436C132.593 0.734786 135.152 0 137.881 0C140.768 0 143.405 0.734786 145.793 2.20436C148.155 3.70018 150.045 5.65524 151.462 8.06954C152.905 10.4838 153.627 13.095 153.627 15.9029C153.627 17.6611 153.312 19.4587 152.682 21.2957C152.078 23.1064 151.239 24.7203 150.163 26.1374L134.85 47.1576H152.958C153.194 47.1576 153.312 47.2626 153.312 47.4725V56.6049C153.312 56.8673 153.194 56.9985 152.958 56.9985Z" fill="url(#paint1_linear_2_85)"/>
<path d="M100.486 57.7858C97.0745 57.7858 94.0435 57.051 91.393 55.5814C88.7688 54.1118 86.7087 52.1568 85.2129 49.7162C83.7433 47.2495 83.0085 44.5465 83.0085 41.6073L83.0873 16.0604C83.0873 13.0687 83.8352 10.3789 85.331 7.99081C86.8006 5.57651 88.8475 3.64769 91.4717 2.20436C94.096 0.734786 97.1007 0 100.486 0C103.95 0 106.968 0.721664 109.54 2.165C112.111 3.60833 114.132 5.55027 115.602 7.99081C117.097 10.4051 117.845 13.095 117.845 16.0604L117.924 41.6073C117.924 44.5202 117.189 47.2101 115.72 49.6769C114.224 52.1437 112.164 54.1118 109.54 55.5814C106.942 57.051 103.924 57.7858 100.486 57.7858ZM108.162 41.6073L108.083 16.0604C108.083 14.1709 107.375 12.6357 105.958 11.4548C104.567 10.2739 102.743 9.68345 100.486 9.68345C98.1767 9.68345 96.3266 10.2739 94.9357 11.4548C93.5449 12.6357 92.8494 14.1709 92.8494 16.0604V41.6073C92.8494 43.6018 93.5449 45.1763 94.9357 46.331C96.3266 47.4856 98.1767 48.063 100.486 48.063C102.743 48.063 104.58 47.4856 105.997 46.331C107.44 45.1763 108.162 43.6018 108.162 41.6073Z" fill="url(#paint2_linear_2_85)"/>
<path d="M77.4581 56.9985H47.3843C47.1219 56.9985 46.9907 56.8673 46.9907 56.6049V47.4725C46.9907 47.3675 47.0432 47.2626 47.1481 47.1576L67.0661 19.8393C67.4335 19.3407 67.7353 18.7108 67.9715 17.9498C68.2339 17.1625 68.3651 16.4802 68.3651 15.9029C68.3651 14.3284 67.8009 12.885 66.6725 11.5729C65.5441 10.2608 64.1139 9.60472 62.3819 9.60472C60.7286 9.60472 59.3246 10.2345 58.17 11.4942C57.0153 12.7538 56.438 14.3546 56.438 16.2965V20.2329C56.438 20.4953 56.3067 20.6265 56.0443 20.6265H46.9907C46.7808 20.6265 46.6758 20.4953 46.6758 20.2329V16.2965C46.6758 13.2787 47.4237 10.5363 48.9195 8.06954C50.3891 5.60275 52.3179 3.64769 54.706 2.20436C57.094 0.734786 59.6527 0 62.3819 0C65.2685 0 67.9059 0.734786 70.2939 2.20436C72.6558 3.70018 74.5452 5.65524 75.9623 8.06954C77.4056 10.4838 78.1273 13.095 78.1273 15.9029C78.1273 17.6611 77.8124 19.4587 77.1826 21.2957C76.579 23.1064 75.7392 24.7203 74.6633 26.1374L59.3509 47.1576H77.4581C77.6943 47.1576 77.8124 47.2626 77.8124 47.4725V56.6049C77.8124 56.8673 77.6943 56.9985 77.4581 56.9985Z" fill="url(#paint3_linear_2_85)"/>
<defs>
<linearGradient id="paint0_linear_2_85" x1="173.879" y1="0.905365" x2="173.879" y2="57.7858" gradientUnits="userSpaceOnUse">
<stop stop-color="#2A2401"/>
<stop offset="0.395679" stop-color="#9A8025"/>
<stop offset="1" stop-color="#EDE060"/>
</linearGradient>
<linearGradient id="paint1_linear_2_85" x1="137.901" y1="0" x2="137.901" y2="56.9985" gradientUnits="userSpaceOnUse">
<stop stop-color="#2A2401"/>
<stop offset="0.395679" stop-color="#9A8025"/>
<stop offset="1" stop-color="#EDE060"/>
</linearGradient>
<linearGradient id="paint2_linear_2_85" x1="100.466" y1="0" x2="100.466" y2="57.7858" gradientUnits="userSpaceOnUse">
<stop stop-color="#2A2401"/>
<stop offset="0.395679" stop-color="#9A8025"/>
<stop offset="1" stop-color="#EDE060"/>
</linearGradient>
<linearGradient id="paint3_linear_2_85" x1="62.4015" y1="0" x2="62.4015" y2="56.9985" gradientUnits="userSpaceOnUse">
<stop stop-color="#2A2401"/>
<stop offset="0.395679" stop-color="#9A8025"/>
<stop offset="1" stop-color="#EDE060"/>
</linearGradient>
</defs>
</svg>
